{"title":"Gli Aristogatti - The Aristocats (1970)[BDrip 720p - H264 - Ita","uid":9796446,"size":4200969238,"categoryP":"video","categoryS":"hd___movies","magnet":"?xt=urn:btih:7d18a62ec345b5c1f6f72c86e30dd26ebb88c1c4&amp;dn=Gli+Aristogatti+-+The+Aristocats+%281970%29%5BBDrip+720p+-+H264+-+Ita+&amp;tr=udp%3A%2F%2Ftracker.openbittorrent.com%3A80&amp;tr=udp%3A%2F%2Fopen.demonii.com%3A1337&amp;tr=udp%3A%2F%2Ftracker.coppersurfer.tk%3A6969&amp;tr=udp%3A%2F%2Fexodus.desync.com%3A6969","seeders":9,"leechers":1,"uploader":"kaimanov","files":1,"time":1395325843,"description":"Gli Aristogatti\nThe Aristocats\n(1970)\n\n[IMG]http://i.imgur.com/0WGlEj1.jpg[/IMG]\n\n------------------------------------------\n\nInfo File\n\nVideo: BDRip x264, 1200x720, 23.976 fps \nAudio: Ita DTS 5.1 , Ita Eng AC3 5.1\nSoftSub: Ita, Eng\n\n------------------------------------------\n\n\n* * * MediaInspector for Mac - Version 2.0.1, build 900\n* * * Â©2012 by Diego Massanti\n* * * MediaInfo Lib by Jerome Martinez\n* * * Raw File Report for Gli Aristogatti - The Aristocats (1970)BDRip 720p x264 Ita DTS Ita-Eng Ac3 Sub Ita-Eng.mkv\n\nGeneral\n\nComplete name                    : \nGli Aristogatti - The Aristocats (1970)BDRip 720p x264 Ita DTS Ita-Eng Ac3 Sub Ita-Eng.mkv\n\nFormat                           : Matroska\nFile size                        : 3.91 GiB\nDuration                         : 1h 18mn\nOverall bit rate                 : 7 139 Kbps\nMovie name                       : Gli Aristogatti - The Aristocats BDRip 720p ITA-ENG\nEncoded date                     : UTC 2014-03-13 15:26:37\nWriting application              : mkvmerge v5.7.0 ('The Whirlwind') built on Jul 15 2012 00:01:52\nWriting library                  : libebml v1.2.2 + libmatroska v1.3.0\n\nVideo\nID                               : 1\nFormat                           : AVC\nFormat/Info                      : Advanced Video Codec\nFormat profile                   : &lt;a class=&quot;__cf_email__&quot; href=&quot;/cdn-cgi/l/email-protection&quot; data-cfemail=&quot;b9f1d0ded1f9f58d9788&quot;&gt;[email&amp;#160;protected]&lt;/a&gt;&lt;script cf-hash='f9e31' type=&quot;text/javascript&quot;&gt;\n/* &lt;![CDATA[ */!function(){try{var t=&quot;currentScript&quot;in document?document.currentScript:function(){for(var t=document.getElementsByTagName(&quot;script&quot;),e=t.length;e--;)if(t[e].getAttribute(&quot;cf-hash&quot;))return t[e]}();if(t&amp;&amp;t.previousSibling){var e,r,n,i,c=t.previousSibling,a=c.getAttribute(&quot;data-cfemail&quot;);if(a){for(e=&quot;&quot;,r=parseInt(a.substr(0,2),16),n=2;a.length-n;n+=2)i=parseInt(a.substr(n,2),16)^r,e+=String.fromCharCode(i);e=document.createTextNode(e),c.parentNode.replaceChild(e,c)}}}catch(u){}}();/* ]]&gt; */&lt;/script&gt;\nFormat settings, CABAC           : Yes\nFormat settings, ReFrames        : 5 frames\nFormat settings, GOP             : M=1, N=24\nMuxing mode                      : Header stripping\nCodec ID                         : V_MPEG4/ISO/AVC\nDuration                         : 1h 18mn\nBit rate                         : 4 347 Kbps\nWidth                            : 1 200 pixels\nHeight                           : 720 pixels\nDisplay aspect ratio             : 1.667\nFrame rate                       : 23.976 fps\nColor space                      : YUV\nChroma subsampling               : 4:2:0\nBit depth                        : 8 bits\nScan type                        : Progressive\nBits/(Pixel*Frame)               : 0.210\nStream size                      : 2.31 GiB (59%)\nTitle                            : Gli Aristogatti - The Aristocats (1970)\nWriting library                  : x264 core 120 r2164 da19765\nEncoding settings                : cabac=1 / ref=5 / deblock=1:-3:-3 / analyse=0x3:0x133 / me=umh / subme=7 / psy=1 / psy_rd=1.00:0.00 / mixed_ref=1 / me_range=32 / chroma_me=1 / trellis=2 / 8x8dct=1 / cqm=0 / deadzone=21,11 / fast_pskip=0 / chroma_qp_offset=-2 / threads=12 / sliced_threads=0 / nr=0 / decimate=1 / interlaced=0 / bluray_compat=0 / constrained_intra=0 / bframes=3 / b_pyramid=2 / b_adapt=2 / b_bias=0 / direct=1 / weightb=1 / open_gop=0 / weightp=2 / keyint=230 / keyint_min=22 / scenecut=40 / intra_refresh=0 / rc=2pass / mbtree=0 / bitrate=4347 / ratetol=2.5 / qcomp=0.50 / qpmin=10 / qpmax=51 / qpstep=4 / cplxblur=20.0 / qblur=0.5 / ip_ratio=1.40 / pb_ratio=1.00 / aq=1:1.00\nLanguage                         : English\n\nAudio #1\nID                               : 2\nFormat                           : DTS\nFormat/Info                      : Digital Theater Systems\nMuxing mode                      : Header stripping\nCodec ID                         : A_DTS\nDuration                         : 1h 18mn\nBit rate mode                    : Constant\nBit rate                         : 1 510 Kbps\nChannel(s)                       : 6 channels\nChannel positions                : Front: L C R, Side: L R, LFE\nSampling rate                    : 48.0 KHz\nBit depth                        : 24 bits\nCompression mode                 : Lossy\nStream size                      : 847 MiB (21%)\nTitle                            : Italiano | DTS 5.1 1509 kbps\nLanguage                         : Italian\n\nAudio #2\nID                               : 3\nFormat                           : AC-3\nFormat/Info                      : Audio Coding 3\nMode extension                   : CM (complete main)\nMuxing mode                      : Header stripping\nCodec ID                         : A_AC3\nDuration                         : 1h 18mn\nBit rate mode                    : Constant\nBit rate                         : 640 Kbps\nChannel(s)                       : 6 channels\nChannel positions                : Front: L C R, Side: L R, LFE\nSampling rate                    : 48.0 KHz\nBit depth                        : 16 bits\nCompression mode                 : Lossy\nStream size                      : 359 MiB (9%)\nTitle                            : Italiano | AC3 5.1 640 kbps\nLanguage                         : Italian\n\nAudio #3\nID                               : 4\nFormat                           : AC-3\nFormat/Info                      : Audio Coding 3\nMode extension                   : CM (complete main)\nMuxing mode                      : Header stripping\nCodec ID                         : A_AC3\nDuration                         : 1h 18mn\nBit rate mode                    : Constant\nBit rate                         : 640 Kbps\nChannel(s)                       : 6 channels\nChannel positions                : Front: L C R, Side: L R, LFE\nSampling rate                    : 48.0 KHz\nBit depth                        : 16 bits\nCompression mode                 : Lossy\nStream size                      : 359 MiB (9%)\nTitle                            : English | AC3 5.1 640 kbps\nLanguage                         : English\n\nText #1\nID                               : 5\nFormat                           : UTF-8\nCodec ID                         : S_TEXT/UTF8\nCodec ID/Info                    : UTF-8 Plain Text\nTitle                            : Italian\nLanguage                         : Italian\n\nText #2\nID                               : 6\nFormat                           : UTF-8\nCodec ID                         : S_TEXT/UTF8\nCodec ID/Info                    : UTF-8 Plain Text\nTitle                            : English\nLanguage                         : English\n\nMenu\n00:00:00.000                     : en:00:00:00.000\n00:03:46.560                     : en:00:03:46.560\n00:07:14.893                     : en:00:07:14.893\n00:12:15.360                     : en:00:12:15.360\n00:16:50.551                     : en:00:16:50.551\n00:21:53.646                     : en:00:21:53.646\n00:26:13.489                     : en:00:26:13.489\n00:32:27.737                     : en:00:32:27.737\n00:35:26.416                     : en:00:35:26.416\n00:38:14.125                     : en:00:38:14.125\n00:42:14.157                     : en:00:42:14.157\n00:48:01.462                     : en:00:48:01.462\n00:49:03.566                     : en:00:49:03.566\n00:55:36.667                     : en:00:55:36.667\n00:58:08.318                     : en:00:58:08.318\n01:02:29.287                     : en:01:02:29.287\n01:06:25.732                     : en:01:06:25.732\n01:10:05.410                     : en:01:10:05.410\n01:12:34.100                     : en:01:12:34.100\n01:15:26.731                     : en:01:15:26.731\n\n\n\n","torrent":{"xt":"urn:btih:7d18a62ec345b5c1f6f72c86e30dd26ebb88c1c4","amp;dn":"Gli+Aristogatti+-+The+Aristocats+%281970%29%5BBDrip+720p+-+H264+-+Ita+","amp;tr":["udp%3A%2F%2Ftracker.openbittorrent.com%3A80","udp%3A%2F%2Fopen.demonii.com%3A1337","udp%3A%2F%2Ftracker.coppersurfer.tk%3A6969","udp%3A%2F%2Fexodus.desync.com%3A6969"],"infoHash":"7d18a62ec345b5c1f6f72c86e30dd26ebb88c1c4","infoHashBuffer":{"type":"Buffer","data":[125,24,166,46,195,69,181,193,246,247,44,134,227,13,210,110,187,136,193,196]},"announce":[],"urlList":[]}}